<svg width="571" height="262" viewBox="0 0 571 262" fill="none" xmlns="http://www.w3.org/2000/svg">
<path d="M114.392 59.9503C114.392 27.4199 90.612 2.13623 58.7257 2.13623H12.7751V117.791H58.6988C90.6119 117.791 114.392 92.5076 114.392 59.9503ZM35.5894 23.9571H58.7257C78.7217 23.9571 92.5981 38.6391 92.5981 59.9503C92.5981 81.2615 78.7217 95.9698 58.7257 95.9698H35.5894V23.9571Z" fill="#252D30"/>
<path d="M289.23 85.3419C289.23 61.7225 269.744 55.6029 251.412 49.8323C233.885 44.4642 229.43 40.7334 229.43 33.7281C229.43 27.0985 235.04 22.1598 244.622 22.1598C256.351 22.1598 262.631 28.2795 266.765 37.0294L285.929 25.9447C282.371 18.0283 276.551 11.3419 269.2 6.72792C261.849 2.11397 253.297 -0.221449 244.622 0.0165356C224.813 0.0165356 206.642 12.5779 206.642 34.3722C206.642 56.1665 223.82 63.8962 241.535 68.9153C258.713 73.854 266.496 77.1554 266.496 85.7711C266.496 92.2128 261.692 97.9836 247.977 97.9836C233.617 97.9836 225.511 91.0324 221.378 80.2963L201.892 91.7034C208.172 108.881 223.713 120.288 247.332 120.288C271.945 120.234 289.23 106.814 289.23 85.3419Z" fill="#252D30"/>
<path d="M326.109 2.13623H303.322V117.764H326.109V2.13623Z" fill="#252D30"/>
<path d="M512.81 120.232C546.011 120.232 569.631 98.0894 569.631 64.7269V55.7889H511.656V75.9459H546.548C542.603 89.1782 531.035 97.928 512.864 97.928C488.707 97.928 473.516 81.824 473.381 60.5396C473.228 51.0824 476.619 41.9101 482.888 34.8271C489.156 27.744 497.848 23.2629 507.254 22.2654C523.009 20.8697 536.483 28.0089 542.146 38.1277L561.659 26.8818C556.237 18.4871 548.761 11.6157 539.94 6.91869C531.119 2.22167 521.245 -0.145407 511.253 0.0415221C503.284 -0.0844311 495.371 1.3871 487.981 4.36965C480.59 7.3522 473.872 11.7855 468.223 17.4071C462.574 23.0287 458.108 29.7251 455.09 37.1009C452.071 44.4768 450.561 52.3824 450.648 60.3516C450.863 93.1772 476.629 120.232 512.81 120.232Z" fill="#252D30"/>
<path d="M368.356 47.0668L417.93 117.791H435.269V2.13623H412.482V72.6726L362.908 2.13623H345.569V117.791H368.356V47.0668Z" fill="#252D30"/>
<path d="M67.2349 232.747L38.9722 143.853H0.214768L0 152.79C4.71418 152.686 9.42449 153.128 14.0374 154.106C15.4038 154.455 16.7482 154.885 18.0635 155.394L52.9558 259.507H81.1919L120.191 143.853H95.2293L67.2349 232.747Z" fill="#252D30"/>
<path d="M154.116 143.853H131.329V259.48H154.116V143.853Z" fill="#252D30"/>
<path d="M238.153 236.693H194.055V143.853H171.24V236.693V259.507H238.153V250.57V236.693Z" fill="#252D30"/>
<path d="M293.794 143.853L253.318 259.507H277.931L284.856 238.679H330.967L337.892 259.507H362.693L322.029 143.853H293.794ZM292.129 217.368L307.992 170.129L323.855 217.368H292.129Z" fill="#252D30"/>
<path d="M430.437 217.529H460.311C456.338 230.761 444.797 239.511 426.599 239.511C402.604 239.511 387.251 223.407 387.117 202.122C386.97 192.662 390.368 183.49 396.64 176.408C402.913 169.325 411.608 164.845 421.016 163.848C436.772 162.452 450.245 169.592 455.909 179.71L475.395 168.464C469.979 160.07 462.508 153.199 453.691 148.501C444.874 143.804 435.004 141.437 425.016 141.624C417.052 141.495 409.142 142.961 401.754 145.937C394.366 148.913 387.648 153.338 381.997 158.952C376.346 164.565 371.876 171.253 368.851 178.621C365.826 185.99 364.307 193.889 364.383 201.854C364.383 234.894 390.15 261.815 426.331 261.815C459.532 261.815 483.179 239.672 483.179 206.309V197.371H430.33L430.437 217.529Z" fill="#252D30"/>
<path d="M522.258 237.686V211.759H566.061V190.286H522.258V165.673H570.168V143.853H499.47V259.507H571V237.686H522.258Z" fill="#252D30"/>
<path d="M167.107 49.8852H123.33V71.3574H167.107V95.9698H119.197V117.791H189.894V2.13623H118.365V23.9571H167.107V49.8852Z" fill="#252D30"/>
</svg>
