<svg width="195" height="90" viewBox="0 0 195 90" fill="none" xmlns="http://www.w3.org/2000/svg">
<path d="M39.0596 20.4703C39.0596 9.36267 30.9397 0.729492 20.052 0.729492L4.36206 0.729492L4.36206 40.2202H20.0428C30.9396 40.2202 39.0596 31.587 39.0596 20.4703ZM12.152 8.18028L20.052 8.18028C26.8797 8.18028 31.6178 13.1935 31.6178 20.4703C31.6178 27.747 26.8797 32.7692 20.052 32.7692H12.152L12.152 8.18028Z" fill="white"/>
<path d="M98.7582 29.1402C98.7582 21.0753 92.1046 18.9858 85.8451 17.0154C79.8605 15.1824 78.3392 13.9085 78.3392 11.5165C78.3392 9.25287 80.2547 7.56651 83.5264 7.56651C87.5314 7.56651 89.676 9.6561 91.0873 12.6438L97.6309 8.85888C96.4163 6.15582 94.4288 3.87271 91.9188 2.29727C89.4089 0.72182 86.4888 -0.0756143 83.5264 0.00564613C76.7629 0.00564613 70.5584 4.29477 70.5584 11.7365C70.5584 19.1782 76.4238 21.8175 82.4725 23.5313C88.3379 25.2176 90.9957 26.3449 90.9957 29.2868C90.9957 31.4863 89.3552 33.4568 84.672 33.4568C79.7689 33.4568 77.0012 31.0832 75.5898 27.4174L68.9363 31.3124C71.0808 37.1778 76.3872 41.0727 84.4521 41.0727C92.8561 41.0543 98.7582 36.472 98.7582 29.1402Z" fill="white"/>
<path d="M111.351 0.729492L103.57 0.729492V40.211H111.351V0.729492Z" fill="white"/>
<path d="M175.1 41.0538C186.437 41.0538 194.502 33.4929 194.502 22.1012V19.0493L174.706 19.0493V25.932H186.62C185.273 30.4502 181.323 33.4378 175.118 33.4378C166.87 33.4378 161.683 27.9391 161.637 20.6715C161.585 17.4423 162.743 14.3104 164.883 11.8919C167.024 9.47335 169.991 7.94326 173.203 7.60264C178.583 7.12608 183.183 9.5638 185.117 13.0189L191.78 9.17894C189.928 6.31255 187.376 3.96629 184.364 2.36248C181.352 0.758668 177.98 -0.049578 174.569 0.0142496C171.848 -0.0287574 169.146 0.473701 166.622 1.4921C164.099 2.5105 161.805 4.02426 159.876 5.94378C157.947 7.86329 156.422 10.1498 155.391 12.6683C154.361 15.1868 153.845 17.8862 153.875 20.6073C153.948 31.8157 162.746 41.0538 175.1 41.0538Z" fill="white"/>
<path d="M125.776 16.0712L142.703 40.2202H148.624V0.729492L140.843 0.729492V24.8143L123.916 0.729492L117.995 0.729492V40.2202H125.776V16.0712Z" fill="white"/>
<path d="M22.9575 79.4725L13.3071 49.1191H0.0733332L0 52.1708C1.60967 52.1355 3.21802 52.2864 4.79311 52.6201C5.25968 52.7393 5.71873 52.8862 6.16782 53.06L18.0819 88.6096H27.7232L41.0395 49.1191H32.5163L22.9575 79.4725Z" fill="white"/>
<path d="M52.6233 49.1191H44.8425L44.8425 88.6005H52.6233L52.6233 49.1191Z" fill="white"/>
<path d="M81.3183 80.8197H66.2607V49.1191H58.4707L58.4707 80.8197V88.6096H81.3183V85.558V80.8197Z" fill="white"/>
<path d="M100.317 49.1191L86.4963 88.6096H94.9003L97.2648 81.4978H113.01L115.374 88.6096H123.842L109.958 49.1191L100.317 49.1191ZM99.7485 74.2211L105.165 58.0914L110.581 74.2211H99.7485Z" fill="white"/>
<path d="M146.974 74.2758H157.174C155.818 78.794 151.877 81.7816 145.663 81.7816C137.47 81.7816 132.228 76.2829 132.182 69.0153C132.132 65.7852 133.292 62.6533 135.434 60.235C137.576 57.8167 140.545 56.2869 143.757 55.9464C149.137 55.4698 153.737 57.9076 155.671 61.3627L162.325 57.5227C160.475 54.6564 157.925 52.3101 154.914 50.7062C151.904 49.1023 148.533 48.294 145.123 48.358C142.403 48.3138 139.703 48.8146 137.18 49.8307C134.657 50.8469 132.363 52.3579 130.434 54.2746C128.504 56.1913 126.978 58.4749 125.945 60.9908C124.912 63.5067 124.394 66.204 124.42 68.9235C124.42 80.2053 133.218 89.3975 145.572 89.3975C156.908 89.3975 164.983 81.8367 164.983 70.445V67.3931H146.937L146.974 74.2758Z" fill="white"/>
<path d="M178.327 81.1589V72.3058H193.283V64.9741H178.327V56.5699H194.685V49.1191L170.546 49.1191V88.6096H194.97V81.1589H178.327Z" fill="white"/>
<path d="M57.0591 17.0335L42.1115 17.0335L42.1115 24.3653L57.0591 24.3653V32.7692H40.7001V40.2202L64.8399 40.2202V0.729492L40.416 0.729492V8.18028L57.0591 8.18028V17.0335Z" fill="white"/>
</svg>
