<?xml version="1.0" encoding="utf-8"?>
<!-- Generator: Adobe Illustrator 21.0.1, SVG Export Plug-In . SVG Version: 6.00 Build 0)  -->
<svg version="1.1" id="Layer_1" xmlns="http://www.w3.org/2000/svg" xmlns:xlink="http://www.w3.org/1999/xlink" x="0px" y="0px"
	 width="21.4px" height="23.2px" viewBox="0 0 21.4 23.2" style="enable-background:new 0 0 21.4 23.2;" xml:space="preserve">
<style type="text/css">
	.st0{fill:#414141;}
</style>
<g>
	<g>
		<path d="M15.5,1H5.9C2.6,1,0,3.6,0,6.8v9.4C0,19.4,2.6,22,5.9,22h9.6c3.3,0,5.9-2.6,5.9-5.8V6.8C21.4,3.6,18.8,1,15.5,1z
			 M19.5,16.2c0,2.2-1.8,3.9-4,3.9H5.9c-2.2,0-4-1.8-4-3.9V6.8c0-2.2,1.8-3.9,4-3.9h9.6c2.2,0,4,1.8,4,3.9V16.2z M10.7,6.1
			c-3,0-5.5,2.4-5.5,5.4c0,3,2.5,5.4,5.5,5.4c3,0,5.5-2.4,5.5-5.4C16.2,8.5,13.7,6.1,10.7,6.1z M10.7,15c-2,0-3.6-1.6-3.6-3.5
			c0-2,1.6-3.5,3.6-3.5c2,0,3.6,1.6,3.6,3.5C14.3,13.5,12.7,15,10.7,15z M16.4,4.5c-0.4,0-0.7,0.1-1,0.4c-0.3,0.3-0.4,0.6-0.4,1
			c0,0.4,0.1,0.7,0.4,1c0.3,0.3,0.6,0.4,1,0.4c0.4,0,0.7-0.1,1-0.4c0.3-0.3,0.4-0.6,0.4-1c0-0.4-0.1-0.7-0.4-1
			C17.2,4.7,16.8,4.5,16.4,4.5z"/>
	</g>
</g>
</svg>
