<?xml version="1.0" encoding="utf-8"?>
<!-- Generator: Adobe Illustrator 21.0.1, SVG Export Plug-In . SVG Version: 6.00 Build 0)  -->
<svg version="1.1" id="Layer_1" xmlns="http://www.w3.org/2000/svg" xmlns:xlink="http://www.w3.org/1999/xlink" x="0px" y="0px"
	 width="21.4px" height="21.1px" viewBox="0 0 21.4 21.1" style="enable-background:new 0 0 21.4 21.1;" xml:space="preserve">
<style type="text/css">
	.st0{fill:#231F20;}
	.st1{fill:#EC1E24;}
	.st2{fill:#001FFF;}
	.st3{fill:#FFFFFF;}
	.st4{fill:#414141;}
</style>
<g>
	<g>
		<path class="st1" d="M15.5,0H5.9C2.6,0,0,2.6,0,5.8v9.4C0,18.4,2.6,21,5.9,21h9.6c3.3,0,5.9-2.6,5.9-5.8V5.8
			C21.4,2.6,18.8,0,15.5,0z M19.5,15.2c0,2.2-1.8,3.9-4,3.9H5.9c-2.2,0-4-1.8-4-3.9V5.8c0-2.2,1.8-3.9,4-3.9h9.6c2.2,0,4,1.8,4,3.9
			V15.2z M10.7,5.1c-3,0-5.5,2.4-5.5,5.4c0,3,2.5,5.4,5.5,5.4c3,0,5.5-2.4,5.5-5.4C16.2,7.5,13.7,5.1,10.7,5.1z M10.7,14.1
			c-2,0-3.6-1.6-3.6-3.5c0-2,1.6-3.5,3.6-3.5c2,0,3.6,1.6,3.6,3.5C14.3,12.5,12.7,14.1,10.7,14.1z M16.4,3.5c-0.4,0-0.7,0.1-1,0.4
			c-0.3,0.3-0.4,0.6-0.4,1c0,0.4,0.1,0.7,0.4,1c0.3,0.3,0.6,0.4,1,0.4c0.4,0,0.7-0.1,1-0.4c0.3-0.3,0.4-0.6,0.4-1
			c0-0.4-0.1-0.7-0.4-1C17.2,3.7,16.8,3.5,16.4,3.5z"/>
	</g>
</g>
</svg>
