<?xml version="1.0" encoding="utf-8"?>
<!-- Generator: Adobe Illustrator 21.0.1, SVG Export Plug-In . SVG Version: 6.00 Build 0)  -->
<svg version="1.1" id="Layer_1" xmlns="http://www.w3.org/2000/svg" xmlns:xlink="http://www.w3.org/1999/xlink" x="0px" y="0px"
	 width="467.8px" height="108.2px" viewBox="0 0 467.8 108.2" style="enable-background:new 0 0 467.8 108.2;" xml:space="preserve"
	>
<style type="text/css">
	.st0{fill:#414141;}
</style>
<g>
	<g>
		<g>
			<path d="M83.7,57.8c0-6.8-5.6-8.6-10.9-10.3c-5.1-1.5-6.4-2.6-6.4-4.7c0-1.9,1.6-3.3,4.4-3.3c3.4,0,5.2,1.8,6.4,4.3l5.5-3.2
				c-2.2-4.7-6.5-7.5-11.9-7.5c-5.7,0-11,3.6-11,9.9c0,6.4,5,8.5,10.1,10c5,1.4,7.2,2.4,7.2,4.9c0,1.9-1.4,3.5-5.4,3.5
				c-4.2,0-6.5-2-7.7-5.1l-5.6,3.3c1.8,5,6.3,8.3,13.1,8.3C78.7,67.9,83.7,64.1,83.7,57.8z"/>
			<rect x="87.8" y="33.8" width="6.6" height="33.5"/>
			<path d="M147.9,39.5c4.1,0,7.5,2,9,4.6l5.6-3.2c-2.8-4.6-8.2-7.8-14.6-7.8c-10,0-17.5,7.7-17.5,17.4c0,9.6,7.5,17.3,17.9,17.3
				c9.6,0,16.4-6.4,16.4-16.1v-2.6H148v5.8h10.1c-1.1,3.8-4.5,6.4-9.7,6.4c-7,0-11.4-4.7-11.4-10.9C137,44.2,141.6,39.5,147.9,39.5z
				"/>
			<polygon points="106.6,46.8 120.9,67.2 125.9,67.2 125.9,33.8 119.3,33.8 119.3,54.2 105,33.8 100,33.8 100,67.2 106.6,67.2 			
				"/>
			<path d="M19.4,100.5l-8.2-25.7H4.1l0,0l-4,0L0,77.3c1.6,0,3,0.1,4.1,0.4c0.4,0.1,0.8,0.2,1.2,0.4l10.1,30.1h8.2l11.3-33.5h-7.2
				L19.4,100.5z"/>
			<rect x="38" y="74.8" width="6.6" height="33.5"/>
			<polygon points="68.9,101.6 56.1,101.6 56.1,74.8 49.5,74.8 49.5,101.6 49.5,101.6 49.5,108.2 49.5,108.2 49.5,108.2 68.9,108.2 
				68.9,105.6 68.9,105.6 			"/>
			<path d="M85,74.8l-11.7,33.5h7.1l2-6h13.3l2,6h7.2L93.2,74.8H85z M84.5,96l4.6-13.7L93.7,96H84.5z"/>
			<path d="M124.5,96.1h8.6c-1.1,3.8-4.5,6.4-9.7,6.4c-7,0-11.4-4.7-11.4-10.9c0-6.4,4.6-11,10.9-11c4.1,0,7.5,2,9,4.6l5.6-3.2
				c-2.8-4.6-8.2-7.8-14.6-7.8c-10,0-17.5,7.7-17.5,17.4c0,9.6,7.5,17.3,17.9,17.3c9.6,0,16.4-6.4,16.4-16.1v-2.6h-15.3V96.1z"/>
			<polygon points="34.5,60.9 34.5,67.2 54.9,67.2 54.9,33.8 34.2,33.8 34.2,40.1 48.3,40.1 48.3,47.6 35.7,47.6 35.7,53.8 
				48.3,53.8 48.3,60.9 			"/>
			<path d="M54.2,0L3.7,33.8h0v0l0,0v0.6l0,0v32.8H17c9.2,0,16.1-7.3,16.1-16.7S26.2,33.8,17,33.8H5.8L54.6,1.2l161.2,0V73
				l-50.7,33.8v-4.9h-14.1v-7.5h12.7v-6.2h-12.7v-7.1h13.9v-6.3h-20.5v33.5h20.7v-0.1l0,0.1L217,73.6V0L54.2,0z M10.3,40.1H17
				c5.8,0,9.8,4.3,9.8,10.4s-4,10.4-9.8,10.4h-6.7V40.1z"/>
		</g>
	</g>
	<g>
		<path d="M238.1,24.3c0,3.1-2.2,5.6-5.3,5.6h-4.3V18.7h4.3C235.9,18.7,238.1,21.2,238.1,24.3z M237,24.3c0-2.5-1.7-4.5-4.2-4.5
			h-3.2v9.1h3.2C235.3,28.9,237,26.8,237,24.3z"/>
		<path d="M250,28.9v1.1h-6.6V18.7h6.5v1.1h-5.4v4h5v1.1h-5v4.1H250z"/>
		<path d="M254.7,27.4l1-0.6c0.4,1.3,1.5,2.2,3.2,2.2c1.7,0,2.6-0.8,2.6-2c0-1.3-1.1-1.7-2.8-2.3c-1.8-0.6-3.6-1.1-3.6-3.2
			c0-2,1.6-3.1,3.4-3.1c1.8,0,3.1,1.1,3.7,2.4l-0.9,0.5c-0.4-1-1.3-1.9-2.8-1.9c-1.3,0-2.3,0.7-2.3,1.9c0,1.2,1,1.6,2.5,2.1
			c2,0.7,3.9,1.2,3.9,3.3c0,1.9-1.5,3.1-3.8,3.1C256.8,30.1,255.3,29.1,254.7,27.4z"/>
		<path d="M269.1,18.7v11.2h-1.1V18.7H269.1z"/>
		<path d="M285.8,25.2c0,2.7-2,4.9-5.5,4.9s-5.9-2.6-5.9-5.8c0-3.2,2.4-5.8,5.9-5.8c2.1,0,3.9,1.1,4.8,2.8l-1,0.6
			c-0.7-1.3-2.2-2.2-3.9-2.2c-2.8,0-4.8,2.1-4.8,4.7c0,2.6,1.9,4.7,4.8,4.7c2.6,0,4.1-1.5,4.3-3.4h-4.4v-1.1h5.6V25.2z"/>
		<path d="M299.4,18.7v11.2h-1l-6.2-9.1v9.1h-1.1V18.7h1l6.2,9.1v-9.1H299.4z"/>
		<path d="M314,19.8v4.1h5V25h-5v5h-1.1V18.7h6.3v1.1H314z"/>
		<path d="M323.9,24.3c0-3.2,2.5-5.8,5.8-5.8c3.3,0,5.8,2.6,5.8,5.8c0,3.2-2.5,5.8-5.8,5.8C326.4,30.1,323.9,27.5,323.9,24.3z
			 M334.4,24.3c0-2.6-2-4.7-4.7-4.7s-4.7,2.1-4.7,4.7c0,2.6,2,4.7,4.7,4.7S334.4,26.9,334.4,24.3z"/>
		<path d="M345.1,25.4H342v4.5h-1.1V18.7h4.5c1.9,0,3.4,1.5,3.4,3.4c0,1.5-1,2.8-2.4,3.2l2.7,4.6h-1.3L345.1,25.4z M342,24.4h3.4
			c1.2,0,2.2-1,2.2-2.3c0-1.3-1-2.3-2.2-2.3H342V24.4z"/>
		<path d="M371.1,24.3c0,3.1-2.2,5.6-5.3,5.6h-4.3V18.7h4.3C368.9,18.7,371.1,21.2,371.1,24.3z M370,24.3c0-2.5-1.7-4.5-4.2-4.5
			h-3.2v9.1h3.2C368.3,28.9,370,26.8,370,24.3z"/>
		<path d="M383,28.9v1.1h-6.6V18.7h6.5v1.1h-5.4v4h5v1.1h-5v4.1H383z"/>
		<path d="M387.7,27.4l1-0.6c0.4,1.3,1.5,2.2,3.2,2.2c1.7,0,2.6-0.8,2.6-2c0-1.3-1.1-1.7-2.8-2.3c-1.8-0.6-3.6-1.1-3.6-3.2
			c0-2,1.6-3.1,3.4-3.1c1.8,0,3.1,1.1,3.7,2.4l-0.9,0.5c-0.4-1-1.3-1.9-2.8-1.9c-1.3,0-2.3,0.7-2.3,1.9c0,1.2,1,1.6,2.5,2.1
			c2,0.7,3.9,1.2,3.9,3.3c0,1.9-1.5,3.1-3.8,3.1C389.8,30.1,388.3,29.1,387.7,27.4z"/>
		<path d="M402.1,18.7v11.2H401V18.7H402.1z"/>
		<path d="M418.8,25.2c0,2.7-2,4.9-5.5,4.9s-5.9-2.6-5.9-5.8c0-3.2,2.4-5.8,5.9-5.8c2.1,0,3.9,1.1,4.8,2.8l-1,0.6
			c-0.7-1.3-2.2-2.2-3.9-2.2c-2.8,0-4.8,2.1-4.8,4.7c0,2.6,1.9,4.7,4.8,4.7c2.6,0,4.1-1.5,4.3-3.4h-4.4v-1.1h5.6V25.2z"/>
		<path d="M432.5,18.7v11.2h-1l-6.2-9.1v9.1h-1.1V18.7h1l6.2,9.1v-9.1H432.5z"/>
		<path d="M440.1,20.8h-1l-1.5-2.1h1.3L440.1,20.8z"/>
		<path d="M444.5,27.4l1-0.6c0.4,1.3,1.5,2.2,3.2,2.2c1.7,0,2.6-0.8,2.6-2c0-1.3-1.1-1.7-2.8-2.3c-1.8-0.6-3.6-1.1-3.6-3.2
			c0-2,1.6-3.1,3.4-3.1c1.8,0,3.1,1.1,3.7,2.4l-0.9,0.5c-0.4-1-1.3-1.9-2.8-1.9c-1.3,0-2.3,0.7-2.3,1.9c0,1.2,1,1.6,2.5,2.1
			c2,0.7,3.9,1.2,3.9,3.3c0,1.9-1.5,3.1-3.8,3.1C446.6,30.1,445,29.1,444.5,27.4z"/>
		<path d="M227.8,51.4l1-0.6c0.4,1.3,1.5,2.2,3.2,2.2c1.7,0,2.6-0.8,2.6-2c0-1.3-1.1-1.7-2.8-2.3c-1.8-0.6-3.6-1.1-3.6-3.2
			c0-2,1.6-3.1,3.4-3.1c1.8,0,3.1,1.1,3.7,2.4l-0.9,0.5c-0.4-1-1.3-1.9-2.8-1.9c-1.3,0-2.3,0.7-2.3,1.9c0,1.2,1,1.6,2.5,2.1
			c2,0.7,3.9,1.2,3.9,3.3c0,1.9-1.5,3.1-3.8,3.1C229.9,54.1,228.4,53.1,227.8,51.4z"/>
		<path d="M247.4,51.2h-5.3l-1,2.8h-1.2l4.3-11.2h1.2l4.3,11.2h-1.2L247.4,51.2z M247,50.1l-2.3-6l-2.3,6H247z"/>
		<path d="M260.9,53.9l-5.2-5.4v5.4h-1.1V42.7h1.1v5.1l5.1-5.1h1.5l-5.4,5.4l5.5,5.8H260.9z"/>
		<path d="M273.8,52.9v1.1h-6.6V42.7h6.5v1.1h-5.4v4h5v1.1h-5v4.1H273.8z"/>
		<path d="M287.7,42.7v11.2h-1.1V42.7H287.7z"/>
		<path d="M292.9,51.4l1-0.6c0.4,1.3,1.5,2.2,3.2,2.2c1.7,0,2.6-0.8,2.6-2c0-1.3-1.1-1.7-2.8-2.3c-1.8-0.6-3.6-1.1-3.6-3.2
			c0-2,1.6-3.1,3.4-3.1c1.8,0,3.1,1.1,3.7,2.4l-0.9,0.5c-0.4-1-1.3-1.9-2.8-1.9c-1.3,0-2.3,0.7-2.3,1.9c0,1.2,1,1.6,2.5,2.1
			c2,0.7,3.9,1.2,3.9,3.3c0,1.9-1.5,3.1-3.8,3.1C295,54.1,293.5,53.1,292.9,51.4z"/>
		<path d="M322,42.7v11.2h-1l-6.2-9.1v9.1h-1.1V42.7h1l6.2,9.1v-9.1H322z"/>
		<path d="M327.3,48.3c0-3.2,2.5-5.8,5.8-5.8c3.3,0,5.8,2.6,5.8,5.8s-2.5,5.8-5.8,5.8C329.8,54.1,327.3,51.5,327.3,48.3z
			 M337.8,48.3c0-2.6-2-4.7-4.7-4.7s-4.7,2.1-4.7,4.7c0,2.6,2,4.7,4.7,4.7S337.8,50.9,337.8,48.3z"/>
		<path d="M350.7,43.8h-3.4v10.1h-1.1V43.8h-3.4v-1.1h8V43.8z"/>
		<path d="M372.7,48.3c0,3.1-2.2,5.6-5.3,5.6h-4.3V42.7h4.3C370.5,42.7,372.7,45.2,372.7,48.3z M371.6,48.3c0-2.5-1.7-4.5-4.2-4.5
			h-3.2v9.1h3.2C370,52.9,371.6,50.8,371.6,48.3z"/>
		<path d="M384.7,52.9v1.1h-6.6V42.7h6.5v1.1h-5.4v4h5v1.1h-5v4.1H384.7z"/>
		<path d="M389.4,51.4l1-0.6c0.4,1.3,1.5,2.2,3.2,2.2c1.7,0,2.6-0.8,2.6-2c0-1.3-1.1-1.7-2.8-2.3c-1.8-0.6-3.6-1.1-3.6-3.2
			c0-2,1.6-3.1,3.4-3.1c1.8,0,3.1,1.1,3.7,2.4l-0.9,0.5c-0.4-1-1.3-1.9-2.8-1.9c-1.3,0-2.3,0.7-2.3,1.9c0,1.2,1,1.6,2.5,2.1
			c2,0.7,3.9,1.2,3.9,3.3c0,1.9-1.5,3.1-3.8,3.1C391.5,54.1,389.9,53.1,389.4,51.4z"/>
		<path d="M403.7,42.7v11.2h-1.1V42.7H403.7z"/>
		<path d="M420.4,49.2c0,2.7-2,4.9-5.5,4.9s-5.9-2.6-5.9-5.8s2.4-5.8,5.9-5.8c2.1,0,3.9,1.1,4.8,2.8l-1,0.6
			c-0.7-1.3-2.2-2.2-3.9-2.2c-2.8,0-4.8,2.1-4.8,4.7c0,2.6,1.9,4.7,4.8,4.7c2.6,0,4.1-1.5,4.3-3.4h-4.4v-1.1h5.6V49.2z"/>
		<path d="M434.1,42.7v11.2h-1l-6.2-9.1v9.1h-1.1V42.7h1l6.2,9.1v-9.1H434.1z"/>
	</g>
	<path d="M466.7,1.2v71.7H217V1.2H466.7 M467.8,0h-252v74h252V0L467.8,0z"/>
</g>
</svg>
