<?xml version="1.0" encoding="utf-8"?>
<!-- Generator: Adobe Illustrator 21.0.1, SVG Export Plug-In . SVG Version: 6.00 Build 0)  -->
<svg version="1.1" id="Layer_1" xmlns="http://www.w3.org/2000/svg" xmlns:xlink="http://www.w3.org/1999/xlink" x="0px" y="0px"
	 width="24px" height="24px" viewBox="0 0 24 24" style="enable-background:new 0 0 24 24;" xml:space="preserve">
<style type="text/css">
	.st0{fill:#414141;}
</style>
<g>
	<g>
		<g>
			<path class="st0" d="M10.1,10c0-0.9-0.6-0.9-0.6-0.9H9.1H6.9h0v2h2.4C9.7,11.1,10.1,10.9,10.1,10z"/>
			<path class="st0" d="M16.1,11.1c-1.4,0-1.6,1.4-1.6,1.4h2.9C17.4,12.4,17.4,11.1,16.1,11.1z"/>
			<path class="st0" d="M9.5,12.4H6.9v2.4h2.3c0,0,0.1,0,0.2,0c0.4,0,1.1-0.1,1.1-1.1C10.4,12.4,9.5,12.4,9.5,12.4z"/>
			<path class="st0" d="M12,0C5.4,0,0,5.4,0,12c0,6.6,5.4,12,12,12c6.6,0,12-5.4,12-12C24,5.4,18.6,0,12,0z M14.1,8h3.6v1.1h-3.6V8z
				 M12.3,13.7c0,2.7-2.8,2.6-2.8,2.6H6.9H6.8H4.9V7.5h1.9h0.1h2.6c1.4,0,2.5,0.8,2.5,2.4c0,1.6-1.3,1.7-1.3,1.7
				C12.4,11.5,12.3,13.7,12.3,13.7z M19.1,13.6h-4.6c0,1.6,1.6,1.5,1.6,1.5c1.5,0,1.4-1,1.4-1H19c0,2.5-3,2.3-3,2.3
				c-3.6,0-3.4-3.4-3.4-3.4s0-3.4,3.4-3.4C19.6,9.8,19.1,13.6,19.1,13.6z"/>
		</g>
	</g>
</g>
</svg>
