<?xml version="1.0" encoding="utf-8"?>
<!-- Generator: Adobe Illustrator 21.0.1, SVG Export Plug-In . SVG Version: 6.00 Build 0)  -->
<svg version="1.1" id="Layer_1" xmlns="http://www.w3.org/2000/svg" xmlns:xlink="http://www.w3.org/1999/xlink" x="0px" y="0px"
	 width="24px" height="24px" viewBox="0 0 24 24" style="enable-background:new 0 0 24 24;" xml:space="preserve">
<style type="text/css">
	.st0{fill:#414141;}
</style>
<g>
	<path class="st0" d="M15.4,5.9H8.6c-1.6,0-2.8,1.2-2.8,2.8v6.6c0,1.5,1.3,2.8,2.8,2.8h6.7c1.6,0,2.8-1.2,2.8-2.8V8.7
		C18.2,7.2,16.9,5.9,15.4,5.9z M12,15.8c-2.1,0-3.9-1.7-3.9-3.8c0-2.1,1.7-3.8,3.9-3.8c2.1,0,3.9,1.7,3.9,3.8
		C15.9,14.1,14.1,15.8,12,15.8z M16.7,8.7C16.6,8.9,16.3,9,16,9c-0.3,0-0.5-0.1-0.7-0.3c-0.2-0.2-0.3-0.4-0.3-0.7
		c0-0.3,0.1-0.5,0.3-0.7c0.2-0.2,0.4-0.3,0.7-0.3c0.3,0,0.5,0.1,0.7,0.3C16.9,7.5,17,7.8,17,8C17,8.3,16.9,8.5,16.7,8.7z"/>
	<ellipse class="st0" cx="12" cy="12" rx="2.5" ry="2.5"/>
	<path class="st0" d="M12,0C5.4,0,0,5.4,0,12s5.4,12,12,12s12-5.4,12-12S18.6,0,12,0z M19.5,15.3c0,2.2-1.9,4.1-4.2,4.1H8.6
		c-2.3,0-4.2-1.8-4.2-4.1V8.7c0-2.2,1.9-4.1,4.2-4.1h6.7c2.3,0,4.2,1.8,4.2,4.1V15.3z"/>
</g>
</svg>
