<?xml version="1.0" encoding="utf-8"?>
<!-- Generator: Adobe Illustrator 21.0.1, SVG Export Plug-In . SVG Version: 6.00 Build 0)  -->
<svg version="1.1" id="Layer_1" xmlns="http://www.w3.org/2000/svg" xmlns:xlink="http://www.w3.org/1999/xlink" x="0px" y="0px"
	 width="24px" height="24px" viewBox="0 0 24 24" style="enable-background:new 0 0 24 24;" xml:space="preserve">
<style type="text/css">
	.st0{fill:#414141;}
</style>
<g>
	<g>
		<g>
			<path class="st0" d="M11.6,9.9c-1.1-2-2.3-3.6-2.4-3.7C7.5,7,6.1,8.7,5.7,10.7C5.9,10.7,8.6,10.7,11.6,9.9z"/>
			<path class="st0" d="M10.5,5.7C10.5,5.8,10.4,5.8,10.5,5.7C10.4,5.8,10.5,5.8,10.5,5.7L10.5,5.7z"/>
			<path class="st0" d="M16.3,7.2c-1.1-1-2.6-1.6-4.3-1.6c-0.5,0-1,0.1-1.5,0.2c0.1,0.1,1.3,1.7,2.4,3.8C15.3,8.6,16.2,7.2,16.3,7.2
				z"/>
			<path class="st0" d="M13.1,13.1c-3.8,1.3-5,4-5.1,4c1.1,0.9,2.5,1.4,4,1.4c0.9,0,1.7-0.2,2.5-0.5C14.4,17.4,14,15.4,13.1,13.1
				C13.1,13,13.1,13,13.1,13.1z"/>
			<path class="st0" d="M12.4,12.1c0.1,0,0.2-0.1,0.3-0.1c-0.2-0.4-0.3-0.7-0.5-1.1c-3.3,1-6.5,0.9-6.6,0.9c0,0.1,0,0.1,0,0.2
				c0,1.7,0.6,3.2,1.6,4.3l0,0C7.2,16.3,9,13.2,12.4,12.1z"/>
			<path class="st0" d="M12,0C5.4,0,0,5.4,0,12c0,6.6,5.4,12,12,12c6.6,0,12-5.4,12-12C24,5.4,18.6,0,12,0z M19.4,13.5
				c-0.1,0.5-0.2,1-0.4,1.4c-0.2,0.4-0.4,0.9-0.7,1.3c-0.3,0.4-0.6,0.8-0.9,1.1c-0.3,0.3-0.7,0.6-1.1,0.9c-0.4,0.3-0.8,0.5-1.3,0.7
				c-0.5,0.2-0.9,0.3-1.4,0.4c-0.5,0.1-1,0.2-1.5,0.2c-0.5,0-1-0.1-1.5-0.2c-0.5-0.1-1-0.2-1.4-0.4c-0.4-0.2-0.9-0.4-1.3-0.7
				C7.4,18,7,17.7,6.7,17.3C6.3,17,6,16.6,5.8,16.2c-0.3-0.4-0.5-0.8-0.7-1.3c-0.2-0.5-0.3-0.9-0.4-1.4c-0.1-0.5-0.2-1-0.2-1.5
				c0-0.5,0.1-1,0.2-1.5c0.1-0.5,0.2-1,0.4-1.4c0.2-0.4,0.4-0.9,0.7-1.3C6,7.4,6.3,7,6.7,6.7C7,6.3,7.4,6,7.8,5.8
				c0.4-0.3,0.8-0.5,1.3-0.7c0.5-0.2,0.9-0.3,1.4-0.4c0.5-0.1,1-0.2,1.5-0.2c0.5,0,1,0.1,1.5,0.2c0.5,0.1,1,0.2,1.4,0.4
				c0.4,0.2,0.9,0.4,1.3,0.7C16.6,6,17,6.3,17.3,6.7C17.7,7,18,7.4,18.3,7.8c0.3,0.4,0.5,0.8,0.7,1.3c0.2,0.5,0.3,0.9,0.4,1.4
				c0.1,0.5,0.2,1,0.2,1.5C19.5,12.5,19.5,13,19.4,13.5z"/>
			<path class="st0" d="M14.3,12.7c0.8,2.3,1.2,4.2,1.3,4.6c1.4-1,2.5-2.5,2.8-4.3C18.2,13,16.4,12.4,14.3,12.7z"/>
			<path class="st0" d="M13.4,10.5c0.2,0.3,0.3,0.6,0.4,0.9c0,0.1,0.1,0.2,0.1,0.3c2.2-0.3,4.4,0.2,4.5,0.2c0-1.5-0.6-2.9-1.5-4
				C17,7.9,15.9,9.4,13.4,10.5z"/>
		</g>
	</g>
</g>
</svg>
