<?xml version="1.0" encoding="utf-8"?>
<!-- Generator: Adobe Illustrator 21.0.1, SVG Export Plug-In . SVG Version: 6.00 Build 0)  -->
<svg version="1.1" id="Layer_1" xmlns="http://www.w3.org/2000/svg" xmlns:xlink="http://www.w3.org/1999/xlink" x="0px" y="0px"
	 width="24px" height="24px" viewBox="0 0 24 24" style="enable-background:new 0 0 24 24;" xml:space="preserve">
<style type="text/css">
	.st0{fill:#414141;}
</style>
<path class="st0" d="M12,0C5.4,0,0,5.4,0,12c0,6.6,5.4,12,12,12c6.6,0,12-5.4,12-12C24,5.4,18.6,0,12,0z M17.2,9.5l0,0.3
	c0,3.3-2.7,7.2-7.6,7.2c-1.5,0-2.9-0.4-4.1-1.1c0.2,0,0.4,0,0.6,0c1.2,0,2.4-0.4,3.3-1.1c-1.2,0-2.2-0.8-2.5-1.8c0.2,0,0.3,0,0.5,0
	c0.2,0,0.5,0,0.7-0.1C6.9,12.8,6,11.8,6,10.5v0c0.4,0.2,0.8,0.3,1.2,0.3C6.5,10.4,6,9.6,6,8.7c0-0.5,0.1-0.9,0.4-1.3
	C7.7,9,9.7,10,11.9,10.1c0-0.2-0.1-0.4-0.1-0.6C11.8,8.1,13,7,14.5,7c0.8,0,1.5,0.3,1.9,0.8c0.6-0.1,1.2-0.3,1.7-0.6
	c-0.2,0.6-0.6,1.1-1.2,1.4c0.5-0.1,1.1-0.2,1.5-0.4C18.1,8.7,17.7,9.1,17.2,9.5z"/>
</svg>
